# xmcd CD database file
#
# Track frame offsets:
#	150
#	16309
#	31498
#	49067
#	66483
#	80232
#	98769
#	118000
#	137542
#	152889
#	174163
#	191987
#	202962
#	219892
#	235551
#	254278
#	270960
#	286168
#	306594
#
# Disc length: 4240 seconds
#
# Revision: 1
# Processed by: cddbd v1.5.1PL2 Copyright (c) Steve Scherf et al.
# Submitted via: CDex 1.50beta10
#
DISCID=0a108e13
DTITLE=Various Artist - Franky Country Gold #12
DYEAR=1900
DGENRE=Country
TTITLE0=01. Shania Twain - Honey, I'm Home
TTITLE1=02. Tracy Byrd - Right About Now
TTITLE2=03. Ty Herndon - Big Time Dreamer
TTITLE3=04. Toby Keith - Does That Blue Moon Ever Shine On You
TTITLE4=05. Alan Jackson - Wanted
TTITLE5=06. Collin Raye - One Boy, One Girl
TTITLE6=07. David Lee Murphy - Genuine Rednecks
TTITLE7=08. Brooks and Dunn - Why Would I Say Goodbye
TTITLE8=09. Mindy McCready - 10000 Angels
TTITLE9=10. Shania Twain - From This Moment On
TTITLE10=11. Toby Keith - Me Too
TTITLE11=12. Dayrl Singletary - The Used To Be's
TTITLE12=13. Dixie Chicks - Wide Open Spaces
TTITLE13=14. Toby Keith - Wish I Didn't Know Now
TTITLE14=15. John Michael Montgomery - Rope The Moon
TTITLE15=16. Alan Jackson - Here In The Real World
TTITLE16=17. George Strait - Check Yes Or No
TTITLE17=18. Shania Twain - [If You're Not In It For Love] I'm Outta Here!
TTITLE18=19. John Michael Montgomery - Sold [The Grundy County Auction Incident]
EXTD=
EXTT0=
EXTT1=
EXTT2=
EXTT3=
EXTT4=
EXTT5=
EXTT6=
EXTT7=
EXTT8=
EXTT9=
EXTT10=
EXTT11=
EXTT12=
EXTT13=
EXTT14=
EXTT15=
EXTT16=
EXTT17=
EXTT18=
PLAYORDER=
